<svg xmlns="http://www.w3.org/2000/svg" viewBox="0 0 32 32" width="21" height="21" style="fill: rgba(42, 143, 247, 1);border-color: rgba(187,187,187,1);border-width: 0px;border-style: solid" filter="none"><path d="M28 10.667c1.473 0 2.667 1.194 2.667 2.667v0 5.333c0 1.473-1.194 2.667-2.667 2.667v0h-1.416c-0.686 5.289-5.163 9.333-10.584 9.333v0-2.667c4.418 0 8-3.582 8-8v0-8c0-4.418-3.582-8-8-8s-8 3.582-8 8v0 9.333h-4c-1.473 0-2.667-1.194-2.667-2.667v0-5.333c0-1.473 1.194-2.667 2.667-2.667v0h1.416c0.687-5.289 5.163-9.332 10.584-9.332s9.897 4.043 10.578 9.278l0.006 0.054h1.416zM10.347 21.047l1.413-2.261c1.199 0.762 2.66 1.215 4.227 1.215 0.005 0 0.009 0 0.014 0h-0.001c0.004 0 0.008 0 0.013 0 1.567 0 3.028-0.453 4.26-1.234l-0.032 0.019 1.413 2.261c-1.599 1.017-3.548 1.62-5.637 1.62-0.006 0-0.011 0-0.017 0h0.001c-0.005 0-0.011 0-0.016 0-2.089 0-4.038-0.604-5.68-1.646l0.043 0.026z"></path></svg>