<svg xmlns="http://www.w3.org/2000/svg" viewBox="0 0 32 32" width="21" height="21" style="fill: rgba(73, 175, 200, 1);border-color: rgba(187,187,187,1);border-width: 0px;border-style: solid" filter="none"><path d="M20.299 20.677l-2.951 6.2c-0.132 0.272-0.405 0.456-0.722 0.456-0.228 0-0.434-0.096-0.58-0.249l-0-0-4.723-4.985c-0.123-0.129-0.287-0.217-0.472-0.242l-0.004-0-6.809-0.891c-0.395-0.053-0.696-0.388-0.696-0.793 0-0.14 0.036-0.271 0.099-0.386l-0.002 0.004 3.283-6.032c0.061-0.11 0.096-0.241 0.096-0.381 0-0.052-0.005-0.103-0.014-0.152l0.001 0.005-1.257-6.751c-0.009-0.044-0.014-0.095-0.014-0.147 0-0.442 0.358-0.8 0.8-0.8 0.052 0 0.103 0.005 0.152 0.014l-0.005-0.001 6.751 1.257c0.044 0.009 0.095 0.014 0.147 0.014 0.139 0 0.271-0.036 0.385-0.098l-0.004 0.002 6.032-3.283c0.11-0.061 0.242-0.097 0.381-0.097 0.405 0 0.74 0.302 0.793 0.693l0 0.004 0.891 6.808c0.026 0.189 0.114 0.353 0.242 0.476l0 0 4.985 4.723c0.154 0.146 0.249 0.352 0.249 0.58 0 0.317-0.184 0.591-0.451 0.72l-0.005 0.002-6.2 2.951c-0.167 0.081-0.298 0.212-0.377 0.374l-0.002 0.005zM21.361 23.247l1.885-1.885 5.657 5.656-1.887 1.887-5.656-5.657z"></path></svg>