<svg xmlns="http://www.w3.org/2000/svg" viewBox="0 0 32 32" width="21" height="21" style="fill: rgba(170, 170, 170, 1);border-color: rgba(187,187,187,1);border-width: 0px;border-style: solid" filter="none"><path d="M26.667 29.333h-21.333c-0.736 0-1.333-0.597-1.333-1.333v0-24c0-0.736 0.597-1.333 1.333-1.333v0h21.333c0.736 0 1.333 0.597 1.333 1.333v0 24c0 0.736-0.597 1.333-1.333 1.333v0zM9.333 8v5.333h5.333v-5.333h-5.333zM9.333 16v2.667h13.333v-2.667h-13.333zM9.333 21.333v2.667h13.333v-2.667h-13.333zM17.333 9.333v2.667h5.333v-2.667h-5.333z"></path></svg>